<svg xmlns="http://www.w3.org/2000/svg" viewBox="0 0 240 240" role="img" aria-label="Limbo Encoder">
  <defs>
    <linearGradient id="bg" x1="0" y1="0" x2="1" y2="1">
      <stop offset="0" stop-color="#4EE894"/>
      <stop offset="1" stop-color="#0F935B"/>
    </linearGradient>
    <linearGradient id="ghost" x1="0" y1="0" x2="1" y2="1">
      <stop offset="0" stop-color="#0B3D28"/>
      <stop offset="1" stop-color="#0A2E20"/>
    </linearGradient>
  </defs>
  <rect x="0" y="0" width="240" height="240" rx="54" fill="url(#bg)"/>
  <rect x="0" y="0" width="240" height="240" rx="54" fill="#000000" opacity="0.06"/>
  <g opacity="0.5">
    <rect x="54" y="34" width="132" height="78" rx="16" fill="url(#ghost)"/>
    <g fill="#0F935B">
      <rect x="64" y="42" width="11" height="11" rx="3"/>
      <rect x="92" y="42" width="11" height="11" rx="3"/>
      <rect x="120" y="42" width="11" height="11" rx="3"/>
      <rect x="148" y="42" width="11" height="11" rx="3"/>
      <rect x="176" y="42" width="11" height="11" rx="3"/>
    </g>
    <path d="M 111 66 L 111 90 L 135 78 Z" fill="#0F935B"/>
  </g>
  <rect x="38" y="122" width="164" height="13" rx="6.5" fill="#08130D"/>
  <g transform="translate(120 170) rotate(-18)">
    <rect x="-40" y="-26" width="80" height="52" rx="13" fill="#08130D"/>
    <g fill="#4EE894">
      <rect x="-30" y="-19" width="7" height="7" rx="2"/>
      <rect x="-6" y="-19" width="7" height="7" rx="2"/>
      <rect x="18" y="-19" width="7" height="7" rx="2"/>
    </g>
    <path d="M -9 -8 L -9 14 L 13 3 Z" fill="#4EE894"/>
  </g>
</svg>
